M48
; DRILL file {KiCad (6.0.5)} date Fri Jun 10 22:27:43 2022
; FORMAT={-:-/ absolute / inch / decimal}
; #@! TF.CreationDate,2022-06-10T22:27:43+05:30
; #@! TF.GenerationSoftware,Kicad,Pcbnew,(6.0.5)
; #@! TF.FileFunction,Plated,1,2,PTH
FMAT,2
INCH
; #@! TA.AperFunction,Plated,PTH,ViaDrill
T1C0.0118
; #@! TA.AperFunction,Plated,PTH,ComponentDrill
T2C0.0138
; #@! TA.AperFunction,Plated,PTH,ViaDrill
T3C0.0157
; #@! TA.AperFunction,Plated,PTH,ComponentDrill
T4C0.0236
; #@! TA.AperFunction,Plated,PTH,ComponentDrill
T5C0.0315
; #@! TA.AperFunction,Plated,PTH,ComponentDrill
T6C0.0394
; #@! TA.AperFunction,Plated,PTH,ComponentDrill
T7C0.0591
%
G90
G05
T1
X5.62Y-2.92
X5.7Y-2.0
X5.77Y-2.96
X5.8Y-2.71
X5.8423Y-2.8477
X5.859Y-3.124
X5.86Y-2.98
X5.8823Y-2.9577
X5.9076Y-2.8077
X6.0911Y-3.0119
X6.1053Y-2.858
X6.1407Y-2.9061
X6.15Y-2.87
X6.17Y-2.92
X6.17Y-3.19
X6.2Y-3.16
X6.27Y-2.82
X6.42Y-2.62
X6.52Y-2.89
T2
X5.925Y-2.995
X5.955Y-2.965
X5.955Y-3.025
X5.985Y-2.935
X5.985Y-2.995
X5.985Y-3.055
X6.015Y-2.965
X6.015Y-3.025
X6.045Y-2.995
T3
X5.61Y-3.17
X5.64Y-2.71
X5.66Y-2.4
X5.7Y-3.09
X5.72Y-3.04
X5.72Y-3.23
X5.75Y-2.89
X5.78Y-3.09
X5.83Y-3.17
X5.86Y-2.55
X5.8777Y-2.7846
X5.89Y-2.52
X5.9479Y-2.9179
X6.0Y-2.28
X6.01Y-2.75
X6.03Y-2.43
X6.0348Y-2.9252
X6.06Y-2.75
X6.15Y-2.62
X6.18Y-2.78
X6.2855Y-3.0355
X6.34Y-3.22
X6.52Y-3.02
X6.7Y-2.8
X6.75Y-2.74
T5
X6.4913Y-1.72
X6.57Y-1.72
X6.6487Y-1.72
T6
X5.06Y-3.81
X5.06Y-4.41
X5.06Y-5.01
X5.13Y-3.05
X5.1716Y-1.6946
X5.1716Y-2.2654
X5.23Y-3.05
X5.27Y-2.2654
X5.33Y-3.05
X5.36Y-3.81
X5.36Y-4.41
X5.36Y-5.01
X5.3684Y-1.6946
X5.3684Y-2.2654
X5.43Y-3.05
X5.53Y-3.05
X5.66Y-3.81
X5.66Y-4.41
X5.66Y-5.01
X5.96Y-3.81
X5.96Y-4.41
X5.96Y-5.01
X6.26Y-3.81
X6.26Y-4.41
X6.26Y-5.01
X6.442Y-1.9714
X6.442Y-2.0714
X6.56Y-3.81
X6.56Y-4.41
X6.56Y-5.01
T7
X5.06Y-3.51
X5.06Y-4.11
X5.06Y-4.71
X5.3088Y-3.41
X5.3088Y-4.01
X5.3088Y-4.61
X5.66Y-3.51
X5.66Y-4.11
X5.66Y-4.71
X5.9088Y-3.41
X5.9088Y-4.01
X5.9088Y-4.61
X6.26Y-3.51
X6.26Y-4.11
X6.26Y-4.71
X6.5088Y-3.41
X6.5088Y-4.01
X6.5088Y-4.61
T4
G00X5.7399Y-1.6969
M15
G01X5.7399Y-1.7205
M16
G05
G00X5.7399Y-1.8516
M15
G01X5.7399Y-1.8949
M16
G05
G00X6.0801Y-1.6969
M15
G01X6.0801Y-1.7205
M16
G05
G00X6.0801Y-1.8516
M15
G01X6.0801Y-1.8949
M16
G05
T7
G00X5.0495Y-1.9957
M15
G01X5.0495Y-1.9446
M16
G05
G00X5.4905Y-1.9957
M15
G01X5.4905Y-1.9446
M16
G05
T0
M30
