%TF.GenerationSoftware,KiCad,Pcbnew,(6.0.5)*%
%TF.CreationDate,2022-06-10T22:56:38+05:30*%
%TF.ProjectId,mv2,6d76322e-6b69-4636-9164-5f7063625858,rev?*%
%TF.SameCoordinates,Original*%
%TF.FileFunction,Soldermask,Top*%
%TF.FilePolarity,Negative*%
%FSLAX46Y46*%
G04 Gerber Fmt 4.6, Leading zero omitted, Abs format (unit mm)*
G04 Created by KiCad (PCBNEW (6.0.5)) date 2022-06-10 22:56:38*
%MOMM*%
%LPD*%
G01*
G04 APERTURE LIST*
G04 Aperture macros list*
%AMRoundRect*
0 Rectangle with rounded corners*
0 $1 Rounding radius*
0 $2 $3 $4 $5 $6 $7 $8 $9 X,Y pos of 4 corners*
0 Add a 4 corners polygon primitive as box body*
4,1,4,$2,$3,$4,$5,$6,$7,$8,$9,$2,$3,0*
0 Add four circle primitives for the rounded corners*
1,1,$1+$1,$2,$3*
1,1,$1+$1,$4,$5*
1,1,$1+$1,$6,$7*
1,1,$1+$1,$8,$9*
0 Add four rect primitives between the rounded corners*
20,1,$1+$1,$2,$3,$4,$5,0*
20,1,$1+$1,$4,$5,$6,$7,0*
20,1,$1+$1,$6,$7,$8,$9,0*
20,1,$1+$1,$8,$9,$2,$3,0*%
G04 Aperture macros list end*
%ADD10RoundRect,0.140000X0.170000X-0.140000X0.170000X0.140000X-0.170000X0.140000X-0.170000X-0.140000X0*%
%ADD11RoundRect,0.135000X-0.185000X0.135000X-0.185000X-0.135000X0.185000X-0.135000X0.185000X0.135000X0*%
%ADD12C,2.250000*%
%ADD13C,1.508000*%
%ADD14C,1.700000*%
%ADD15C,3.987800*%
%ADD16RoundRect,0.140000X-0.170000X0.140000X-0.170000X-0.140000X0.170000X-0.140000X0.170000X0.140000X0*%
%ADD17C,2.000000*%
%ADD18R,2.000000X3.200000*%
%ADD19R,2.000000X2.000000*%
%ADD20O,1.350000X1.350000*%
%ADD21R,1.350000X1.350000*%
%ADD22O,1.700000X1.700000*%
%ADD23R,1.700000X1.700000*%
%ADD24O,1.000000X2.100000*%
%ADD25O,1.000000X1.600000*%
%ADD26C,0.650000*%
G04 APERTURE END LIST*
D10*
%TO.C,C1*%
X136906000Y-63472000D03*
X136906000Y-62512000D03*
%TD*%
D11*
%TO.C,R2*%
X131572000Y-59942000D03*
X131572000Y-60962000D03*
%TD*%
D12*
%TO.C,U11*%
X143764000Y-89154000D03*
X150084000Y-86614000D03*
D13*
X151384000Y-96774000D03*
X143764000Y-96774000D03*
D14*
X142574000Y-91694000D03*
X152574000Y-91694000D03*
D15*
X147574000Y-91694000D03*
%TD*%
D12*
%TO.C,U9*%
X143764000Y-104394000D03*
X150084000Y-101854000D03*
D13*
X151384000Y-112014000D03*
X143764000Y-112014000D03*
D15*
X147574000Y-106934000D03*
D14*
X152574000Y-106934000D03*
X142574000Y-106934000D03*
%TD*%
D16*
%TO.C,C2*%
X131572000Y-62512000D03*
X131572000Y-63472000D03*
%TD*%
D12*
%TO.C,U12*%
X159004000Y-119634000D03*
X165324000Y-117094000D03*
D13*
X166624000Y-127254000D03*
X159004000Y-127254000D03*
D14*
X157814000Y-122174000D03*
D15*
X162814000Y-122174000D03*
D14*
X167814000Y-122174000D03*
%TD*%
D12*
%TO.C,U10*%
X159004000Y-89154000D03*
X165324000Y-86614000D03*
D13*
X166624000Y-96774000D03*
X159004000Y-96774000D03*
D14*
X157814000Y-91694000D03*
X167814000Y-91694000D03*
D15*
X162814000Y-91694000D03*
%TD*%
D12*
%TO.C,U3*%
X128524000Y-119634000D03*
X134844000Y-117094000D03*
D13*
X136144000Y-127254000D03*
X128524000Y-127254000D03*
D14*
X137334000Y-122174000D03*
D15*
X132334000Y-122174000D03*
D14*
X127334000Y-122174000D03*
%TD*%
D12*
%TO.C,U6*%
X159004000Y-104394000D03*
X165324000Y-101854000D03*
D13*
X166624000Y-112014000D03*
X159004000Y-112014000D03*
D14*
X167814000Y-106934000D03*
X157814000Y-106934000D03*
D15*
X162814000Y-106934000D03*
%TD*%
D12*
%TO.C,U2*%
X143764000Y-119634000D03*
X150084000Y-117094000D03*
D13*
X151384000Y-127254000D03*
X143764000Y-127254000D03*
D14*
X152574000Y-122174000D03*
D15*
X147574000Y-122174000D03*
D14*
X142574000Y-122174000D03*
%TD*%
D12*
%TO.C,U8*%
X128524000Y-104394000D03*
X134844000Y-101854000D03*
D13*
X136144000Y-112014000D03*
X128524000Y-112014000D03*
D14*
X137334000Y-106934000D03*
X127334000Y-106934000D03*
D15*
X132334000Y-106934000D03*
%TD*%
D11*
%TO.C,R3*%
X136652000Y-59942000D03*
X136652000Y-60962000D03*
%TD*%
D17*
%TO.C,S1*%
X131358000Y-43042000D03*
X136358000Y-43042000D03*
D18*
X128258000Y-50042000D03*
X139458000Y-50042000D03*
D17*
X133858000Y-57542000D03*
X136358000Y-57542000D03*
D19*
X131358000Y-57542000D03*
%TD*%
D12*
%TO.C,U13*%
X128524000Y-89154000D03*
X134844000Y-86614000D03*
D13*
X136144000Y-96774000D03*
X128524000Y-96774000D03*
D15*
X132334000Y-91694000D03*
D14*
X127334000Y-91694000D03*
X137334000Y-91694000D03*
%TD*%
D20*
%TO.C,J2*%
X168878000Y-43688000D03*
X166878000Y-43688000D03*
D21*
X164878000Y-43688000D03*
%TD*%
D22*
%TO.C,J1*%
X140462000Y-77470000D03*
X137922000Y-77470000D03*
X135382000Y-77470000D03*
X132842000Y-77470000D03*
D23*
X130302000Y-77470000D03*
%TD*%
D22*
%TO.C,SW1*%
X163628000Y-52614000D03*
D23*
X163628000Y-50074000D03*
%TD*%
D24*
%TO.C,J3*%
X154434000Y-47580000D03*
D25*
X154434000Y-43400000D03*
X145794000Y-43400000D03*
D24*
X145794000Y-47580000D03*
D26*
X147224000Y-47050000D03*
X153004000Y-47050000D03*
%TD*%
M02*
