%TF.GenerationSoftware,KiCad,Pcbnew,(6.0.5)*%
%TF.CreationDate,2022-06-10T22:56:38+05:30*%
%TF.ProjectId,mv2,6d76322e-6b69-4636-9164-5f7063625858,rev?*%
%TF.SameCoordinates,Original*%
%TF.FileFunction,Legend,Top*%
%TF.FilePolarity,Positive*%
%FSLAX46Y46*%
G04 Gerber Fmt 4.6, Leading zero omitted, Abs format (unit mm)*
G04 Created by KiCad (PCBNEW (6.0.5)) date 2022-06-10 22:56:38*
%MOMM*%
%LPD*%
G01*
G04 APERTURE LIST*
G04 Aperture macros list*
%AMRoundRect*
0 Rectangle with rounded corners*
0 $1 Rounding radius*
0 $2 $3 $4 $5 $6 $7 $8 $9 X,Y pos of 4 corners*
0 Add a 4 corners polygon primitive as box body*
4,1,4,$2,$3,$4,$5,$6,$7,$8,$9,$2,$3,0*
0 Add four circle primitives for the rounded corners*
1,1,$1+$1,$2,$3*
1,1,$1+$1,$4,$5*
1,1,$1+$1,$6,$7*
1,1,$1+$1,$8,$9*
0 Add four rect primitives between the rounded corners*
20,1,$1+$1,$2,$3,$4,$5,0*
20,1,$1+$1,$4,$5,$6,$7,0*
20,1,$1+$1,$6,$7,$8,$9,0*
20,1,$1+$1,$8,$9,$2,$3,0*%
G04 Aperture macros list end*
%ADD10C,0.150000*%
%ADD11C,0.120000*%
%ADD12C,0.127000*%
%ADD13RoundRect,0.140000X0.170000X-0.140000X0.170000X0.140000X-0.170000X0.140000X-0.170000X-0.140000X0*%
%ADD14RoundRect,0.135000X-0.185000X0.135000X-0.185000X-0.135000X0.185000X-0.135000X0.185000X0.135000X0*%
%ADD15C,2.250000*%
%ADD16C,1.508000*%
%ADD17C,1.700000*%
%ADD18C,3.987800*%
%ADD19RoundRect,0.140000X-0.170000X0.140000X-0.170000X-0.140000X0.170000X-0.140000X0.170000X0.140000X0*%
%ADD20C,2.000000*%
%ADD21R,2.000000X3.200000*%
%ADD22R,2.000000X2.000000*%
%ADD23O,1.350000X1.350000*%
%ADD24R,1.350000X1.350000*%
%ADD25O,1.700000X1.700000*%
%ADD26R,1.700000X1.700000*%
%ADD27O,1.000000X2.100000*%
%ADD28O,1.000000X1.600000*%
%ADD29C,0.650000*%
G04 APERTURE END LIST*
D10*
%TO.C,*%
%TO.C,C1*%
X136103142Y-63158666D02*
X136150761Y-63206285D01*
X136198380Y-63349142D01*
X136198380Y-63444380D01*
X136150761Y-63587238D01*
X136055523Y-63682476D01*
X135960285Y-63730095D01*
X135769809Y-63777714D01*
X135626952Y-63777714D01*
X135436476Y-63730095D01*
X135341238Y-63682476D01*
X135246000Y-63587238D01*
X135198380Y-63444380D01*
X135198380Y-63349142D01*
X135246000Y-63206285D01*
X135293619Y-63158666D01*
X136198380Y-62206285D02*
X136198380Y-62777714D01*
X136198380Y-62492000D02*
X135198380Y-62492000D01*
X135341238Y-62587238D01*
X135436476Y-62682476D01*
X135484095Y-62777714D01*
%TO.C,*%
%TO.C,R2*%
X133194380Y-60618666D02*
X132718190Y-60952000D01*
X133194380Y-61190095D02*
X132194380Y-61190095D01*
X132194380Y-60809142D01*
X132242000Y-60713904D01*
X132289619Y-60666285D01*
X132384857Y-60618666D01*
X132527714Y-60618666D01*
X132622952Y-60666285D01*
X132670571Y-60713904D01*
X132718190Y-60809142D01*
X132718190Y-61190095D01*
X132289619Y-60237714D02*
X132242000Y-60190095D01*
X132194380Y-60094857D01*
X132194380Y-59856761D01*
X132242000Y-59761523D01*
X132289619Y-59713904D01*
X132384857Y-59666285D01*
X132480095Y-59666285D01*
X132622952Y-59713904D01*
X133194380Y-60285333D01*
X133194380Y-59666285D01*
%TO.C,U11*%
X143160904Y-85431380D02*
X143160904Y-86240904D01*
X143208523Y-86336142D01*
X143256142Y-86383761D01*
X143351380Y-86431380D01*
X143541857Y-86431380D01*
X143637095Y-86383761D01*
X143684714Y-86336142D01*
X143732333Y-86240904D01*
X143732333Y-85431380D01*
X144732333Y-86431380D02*
X144160904Y-86431380D01*
X144446619Y-86431380D02*
X144446619Y-85431380D01*
X144351380Y-85574238D01*
X144256142Y-85669476D01*
X144160904Y-85717095D01*
X145684714Y-86431380D02*
X145113285Y-86431380D01*
X145399000Y-86431380D02*
X145399000Y-85431380D01*
X145303761Y-85574238D01*
X145208523Y-85669476D01*
X145113285Y-85717095D01*
%TO.C,*%
%TO.C,U9*%
X143637095Y-100671380D02*
X143637095Y-101480904D01*
X143684714Y-101576142D01*
X143732333Y-101623761D01*
X143827571Y-101671380D01*
X144018047Y-101671380D01*
X144113285Y-101623761D01*
X144160904Y-101576142D01*
X144208523Y-101480904D01*
X144208523Y-100671380D01*
X144732333Y-101671380D02*
X144922809Y-101671380D01*
X145018047Y-101623761D01*
X145065666Y-101576142D01*
X145160904Y-101433285D01*
X145208523Y-101242809D01*
X145208523Y-100861857D01*
X145160904Y-100766619D01*
X145113285Y-100719000D01*
X145018047Y-100671380D01*
X144827571Y-100671380D01*
X144732333Y-100719000D01*
X144684714Y-100766619D01*
X144637095Y-100861857D01*
X144637095Y-101099952D01*
X144684714Y-101195190D01*
X144732333Y-101242809D01*
X144827571Y-101290428D01*
X145018047Y-101290428D01*
X145113285Y-101242809D01*
X145160904Y-101195190D01*
X145208523Y-101099952D01*
%TO.C,C2*%
X133089142Y-63158666D02*
X133136761Y-63206285D01*
X133184380Y-63349142D01*
X133184380Y-63444380D01*
X133136761Y-63587238D01*
X133041523Y-63682476D01*
X132946285Y-63730095D01*
X132755809Y-63777714D01*
X132612952Y-63777714D01*
X132422476Y-63730095D01*
X132327238Y-63682476D01*
X132232000Y-63587238D01*
X132184380Y-63444380D01*
X132184380Y-63349142D01*
X132232000Y-63206285D01*
X132279619Y-63158666D01*
X132279619Y-62777714D02*
X132232000Y-62730095D01*
X132184380Y-62634857D01*
X132184380Y-62396761D01*
X132232000Y-62301523D01*
X132279619Y-62253904D01*
X132374857Y-62206285D01*
X132470095Y-62206285D01*
X132612952Y-62253904D01*
X133184380Y-62825333D01*
X133184380Y-62206285D01*
%TO.C,U12*%
X158400904Y-115911380D02*
X158400904Y-116720904D01*
X158448523Y-116816142D01*
X158496142Y-116863761D01*
X158591380Y-116911380D01*
X158781857Y-116911380D01*
X158877095Y-116863761D01*
X158924714Y-116816142D01*
X158972333Y-116720904D01*
X158972333Y-115911380D01*
X159972333Y-116911380D02*
X159400904Y-116911380D01*
X159686619Y-116911380D02*
X159686619Y-115911380D01*
X159591380Y-116054238D01*
X159496142Y-116149476D01*
X159400904Y-116197095D01*
X160353285Y-116006619D02*
X160400904Y-115959000D01*
X160496142Y-115911380D01*
X160734238Y-115911380D01*
X160829476Y-115959000D01*
X160877095Y-116006619D01*
X160924714Y-116101857D01*
X160924714Y-116197095D01*
X160877095Y-116339952D01*
X160305666Y-116911380D01*
X160924714Y-116911380D01*
%TO.C,U10*%
X158400904Y-85431380D02*
X158400904Y-86240904D01*
X158448523Y-86336142D01*
X158496142Y-86383761D01*
X158591380Y-86431380D01*
X158781857Y-86431380D01*
X158877095Y-86383761D01*
X158924714Y-86336142D01*
X158972333Y-86240904D01*
X158972333Y-85431380D01*
X159972333Y-86431380D02*
X159400904Y-86431380D01*
X159686619Y-86431380D02*
X159686619Y-85431380D01*
X159591380Y-85574238D01*
X159496142Y-85669476D01*
X159400904Y-85717095D01*
X160591380Y-85431380D02*
X160686619Y-85431380D01*
X160781857Y-85479000D01*
X160829476Y-85526619D01*
X160877095Y-85621857D01*
X160924714Y-85812333D01*
X160924714Y-86050428D01*
X160877095Y-86240904D01*
X160829476Y-86336142D01*
X160781857Y-86383761D01*
X160686619Y-86431380D01*
X160591380Y-86431380D01*
X160496142Y-86383761D01*
X160448523Y-86336142D01*
X160400904Y-86240904D01*
X160353285Y-86050428D01*
X160353285Y-85812333D01*
X160400904Y-85621857D01*
X160448523Y-85526619D01*
X160496142Y-85479000D01*
X160591380Y-85431380D01*
%TO.C,U3*%
X128397095Y-115911380D02*
X128397095Y-116720904D01*
X128444714Y-116816142D01*
X128492333Y-116863761D01*
X128587571Y-116911380D01*
X128778047Y-116911380D01*
X128873285Y-116863761D01*
X128920904Y-116816142D01*
X128968523Y-116720904D01*
X128968523Y-115911380D01*
X129349476Y-115911380D02*
X129968523Y-115911380D01*
X129635190Y-116292333D01*
X129778047Y-116292333D01*
X129873285Y-116339952D01*
X129920904Y-116387571D01*
X129968523Y-116482809D01*
X129968523Y-116720904D01*
X129920904Y-116816142D01*
X129873285Y-116863761D01*
X129778047Y-116911380D01*
X129492333Y-116911380D01*
X129397095Y-116863761D01*
X129349476Y-116816142D01*
%TO.C,U6*%
X158877095Y-100671380D02*
X158877095Y-101480904D01*
X158924714Y-101576142D01*
X158972333Y-101623761D01*
X159067571Y-101671380D01*
X159258047Y-101671380D01*
X159353285Y-101623761D01*
X159400904Y-101576142D01*
X159448523Y-101480904D01*
X159448523Y-100671380D01*
X160353285Y-100671380D02*
X160162809Y-100671380D01*
X160067571Y-100719000D01*
X160019952Y-100766619D01*
X159924714Y-100909476D01*
X159877095Y-101099952D01*
X159877095Y-101480904D01*
X159924714Y-101576142D01*
X159972333Y-101623761D01*
X160067571Y-101671380D01*
X160258047Y-101671380D01*
X160353285Y-101623761D01*
X160400904Y-101576142D01*
X160448523Y-101480904D01*
X160448523Y-101242809D01*
X160400904Y-101147571D01*
X160353285Y-101099952D01*
X160258047Y-101052333D01*
X160067571Y-101052333D01*
X159972333Y-101099952D01*
X159924714Y-101147571D01*
X159877095Y-101242809D01*
%TO.C,*%
%TO.C,U2*%
X143637095Y-115911380D02*
X143637095Y-116720904D01*
X143684714Y-116816142D01*
X143732333Y-116863761D01*
X143827571Y-116911380D01*
X144018047Y-116911380D01*
X144113285Y-116863761D01*
X144160904Y-116816142D01*
X144208523Y-116720904D01*
X144208523Y-115911380D01*
X144637095Y-116006619D02*
X144684714Y-115959000D01*
X144779952Y-115911380D01*
X145018047Y-115911380D01*
X145113285Y-115959000D01*
X145160904Y-116006619D01*
X145208523Y-116101857D01*
X145208523Y-116197095D01*
X145160904Y-116339952D01*
X144589476Y-116911380D01*
X145208523Y-116911380D01*
%TO.C,U8*%
X128397095Y-100671380D02*
X128397095Y-101480904D01*
X128444714Y-101576142D01*
X128492333Y-101623761D01*
X128587571Y-101671380D01*
X128778047Y-101671380D01*
X128873285Y-101623761D01*
X128920904Y-101576142D01*
X128968523Y-101480904D01*
X128968523Y-100671380D01*
X129587571Y-101099952D02*
X129492333Y-101052333D01*
X129444714Y-101004714D01*
X129397095Y-100909476D01*
X129397095Y-100861857D01*
X129444714Y-100766619D01*
X129492333Y-100719000D01*
X129587571Y-100671380D01*
X129778047Y-100671380D01*
X129873285Y-100719000D01*
X129920904Y-100766619D01*
X129968523Y-100861857D01*
X129968523Y-100909476D01*
X129920904Y-101004714D01*
X129873285Y-101052333D01*
X129778047Y-101099952D01*
X129587571Y-101099952D01*
X129492333Y-101147571D01*
X129444714Y-101195190D01*
X129397095Y-101290428D01*
X129397095Y-101480904D01*
X129444714Y-101576142D01*
X129492333Y-101623761D01*
X129587571Y-101671380D01*
X129778047Y-101671380D01*
X129873285Y-101623761D01*
X129920904Y-101576142D01*
X129968523Y-101480904D01*
X129968523Y-101290428D01*
X129920904Y-101195190D01*
X129873285Y-101147571D01*
X129778047Y-101099952D01*
%TO.C,*%
%TO.C,R3*%
X138274380Y-60618666D02*
X137798190Y-60952000D01*
X138274380Y-61190095D02*
X137274380Y-61190095D01*
X137274380Y-60809142D01*
X137322000Y-60713904D01*
X137369619Y-60666285D01*
X137464857Y-60618666D01*
X137607714Y-60618666D01*
X137702952Y-60666285D01*
X137750571Y-60713904D01*
X137798190Y-60809142D01*
X137798190Y-61190095D01*
X137274380Y-60285333D02*
X137274380Y-59666285D01*
X137655333Y-59999619D01*
X137655333Y-59856761D01*
X137702952Y-59761523D01*
X137750571Y-59713904D01*
X137845809Y-59666285D01*
X138083904Y-59666285D01*
X138179142Y-59713904D01*
X138226761Y-59761523D01*
X138274380Y-59856761D01*
X138274380Y-60142476D01*
X138226761Y-60237714D01*
X138179142Y-60285333D01*
%TO.C,*%
%TO.C,S1*%
X127062761Y-55503904D02*
X127110380Y-55361047D01*
X127110380Y-55122952D01*
X127062761Y-55027714D01*
X127015142Y-54980095D01*
X126919904Y-54932476D01*
X126824666Y-54932476D01*
X126729428Y-54980095D01*
X126681809Y-55027714D01*
X126634190Y-55122952D01*
X126586571Y-55313428D01*
X126538952Y-55408666D01*
X126491333Y-55456285D01*
X126396095Y-55503904D01*
X126300857Y-55503904D01*
X126205619Y-55456285D01*
X126158000Y-55408666D01*
X126110380Y-55313428D01*
X126110380Y-55075333D01*
X126158000Y-54932476D01*
X127110380Y-53980095D02*
X127110380Y-54551523D01*
X127110380Y-54265809D02*
X126110380Y-54265809D01*
X126253238Y-54361047D01*
X126348476Y-54456285D01*
X126396095Y-54551523D01*
%TO.C,U13*%
X127920904Y-85431380D02*
X127920904Y-86240904D01*
X127968523Y-86336142D01*
X128016142Y-86383761D01*
X128111380Y-86431380D01*
X128301857Y-86431380D01*
X128397095Y-86383761D01*
X128444714Y-86336142D01*
X128492333Y-86240904D01*
X128492333Y-85431380D01*
X129492333Y-86431380D02*
X128920904Y-86431380D01*
X129206619Y-86431380D02*
X129206619Y-85431380D01*
X129111380Y-85574238D01*
X129016142Y-85669476D01*
X128920904Y-85717095D01*
X129825666Y-85431380D02*
X130444714Y-85431380D01*
X130111380Y-85812333D01*
X130254238Y-85812333D01*
X130349476Y-85859952D01*
X130397095Y-85907571D01*
X130444714Y-86002809D01*
X130444714Y-86240904D01*
X130397095Y-86336142D01*
X130349476Y-86383761D01*
X130254238Y-86431380D01*
X129968523Y-86431380D01*
X129873285Y-86383761D01*
X129825666Y-86336142D01*
%TO.C,J2*%
X162270380Y-44021333D02*
X162984666Y-44021333D01*
X163127523Y-44068952D01*
X163222761Y-44164190D01*
X163270380Y-44307047D01*
X163270380Y-44402285D01*
X162365619Y-43592761D02*
X162318000Y-43545142D01*
X162270380Y-43449904D01*
X162270380Y-43211809D01*
X162318000Y-43116571D01*
X162365619Y-43068952D01*
X162460857Y-43021333D01*
X162556095Y-43021333D01*
X162698952Y-43068952D01*
X163270380Y-43640380D01*
X163270380Y-43021333D01*
%TO.C,J1*%
X126984380Y-77803333D02*
X127698666Y-77803333D01*
X127841523Y-77850952D01*
X127936761Y-77946190D01*
X127984380Y-78089047D01*
X127984380Y-78184285D01*
X127984380Y-76803333D02*
X127984380Y-77374761D01*
X127984380Y-77089047D02*
X126984380Y-77089047D01*
X127127238Y-77184285D01*
X127222476Y-77279523D01*
X127270095Y-77374761D01*
%TO.C,SW1*%
X162294666Y-47708761D02*
X162437523Y-47756380D01*
X162675619Y-47756380D01*
X162770857Y-47708761D01*
X162818476Y-47661142D01*
X162866095Y-47565904D01*
X162866095Y-47470666D01*
X162818476Y-47375428D01*
X162770857Y-47327809D01*
X162675619Y-47280190D01*
X162485142Y-47232571D01*
X162389904Y-47184952D01*
X162342285Y-47137333D01*
X162294666Y-47042095D01*
X162294666Y-46946857D01*
X162342285Y-46851619D01*
X162389904Y-46804000D01*
X162485142Y-46756380D01*
X162723238Y-46756380D01*
X162866095Y-46804000D01*
X163199428Y-46756380D02*
X163437523Y-47756380D01*
X163628000Y-47042095D01*
X163818476Y-47756380D01*
X164056571Y-46756380D01*
X164961333Y-47756380D02*
X164389904Y-47756380D01*
X164675619Y-47756380D02*
X164675619Y-46756380D01*
X164580380Y-46899238D01*
X164485142Y-46994476D01*
X164389904Y-47042095D01*
D11*
%TO.C,C1*%
X136546000Y-63099836D02*
X136546000Y-62884164D01*
X137266000Y-63099836D02*
X137266000Y-62884164D01*
%TO.C,R2*%
X131952000Y-60298359D02*
X131952000Y-60605641D01*
X131192000Y-60298359D02*
X131192000Y-60605641D01*
D12*
%TO.C,U11*%
X139954000Y-99314000D02*
X139954000Y-84074000D01*
X155194000Y-84074000D02*
X155194000Y-99314000D01*
X139954000Y-84074000D02*
X155194000Y-84074000D01*
X155194000Y-99314000D02*
X139954000Y-99314000D01*
%TO.C,U9*%
X155194000Y-114554000D02*
X139954000Y-114554000D01*
X139954000Y-114554000D02*
X139954000Y-99314000D01*
X139954000Y-99314000D02*
X155194000Y-99314000D01*
X155194000Y-99314000D02*
X155194000Y-114554000D01*
D11*
%TO.C,C2*%
X131932000Y-62884164D02*
X131932000Y-63099836D01*
X131212000Y-62884164D02*
X131212000Y-63099836D01*
D12*
%TO.C,U12*%
X155194000Y-114554000D02*
X170434000Y-114554000D01*
X155194000Y-129794000D02*
X155194000Y-114554000D01*
X170434000Y-114554000D02*
X170434000Y-129794000D01*
X170434000Y-129794000D02*
X155194000Y-129794000D01*
%TO.C,U10*%
X170434000Y-84074000D02*
X170434000Y-99314000D01*
X155194000Y-99314000D02*
X155194000Y-84074000D01*
X170434000Y-99314000D02*
X155194000Y-99314000D01*
X155194000Y-84074000D02*
X170434000Y-84074000D01*
%TO.C,U3*%
X139954000Y-129794000D02*
X124714000Y-129794000D01*
X124714000Y-114554000D02*
X139954000Y-114554000D01*
X139954000Y-114554000D02*
X139954000Y-129794000D01*
X124714000Y-129794000D02*
X124714000Y-114554000D01*
%TO.C,U6*%
X170434000Y-114554000D02*
X155194000Y-114554000D01*
X170434000Y-99314000D02*
X170434000Y-114554000D01*
X155194000Y-99314000D02*
X170434000Y-99314000D01*
X155194000Y-114554000D02*
X155194000Y-99314000D01*
%TO.C,U2*%
X139954000Y-129794000D02*
X139954000Y-114554000D01*
X155194000Y-114554000D02*
X155194000Y-129794000D01*
X139954000Y-114554000D02*
X155194000Y-114554000D01*
X155194000Y-129794000D02*
X139954000Y-129794000D01*
%TO.C,U8*%
X139954000Y-114554000D02*
X124714000Y-114554000D01*
X124714000Y-114554000D02*
X124714000Y-99314000D01*
X124714000Y-99314000D02*
X139954000Y-99314000D01*
X139954000Y-99314000D02*
X139954000Y-114554000D01*
D11*
%TO.C,R3*%
X136272000Y-60298359D02*
X136272000Y-60605641D01*
X137032000Y-60298359D02*
X137032000Y-60605641D01*
%TO.C,S1*%
X136858000Y-50042000D02*
G75*
G03*
X136858000Y-50042000I-3000000J0D01*
G01*
X127958000Y-56142000D02*
X139758000Y-56142000D01*
X133858000Y-50542000D02*
X133858000Y-49542000D01*
X127958000Y-43942000D02*
X130358000Y-43942000D01*
X139758000Y-43942000D02*
X139758000Y-48042000D01*
X139758000Y-52042000D02*
X139758000Y-56142000D01*
X129758000Y-57842000D02*
X129758000Y-57242000D01*
X132558000Y-43942000D02*
X135158000Y-43942000D01*
X137358000Y-43942000D02*
X139758000Y-43942000D01*
X133358000Y-50042000D02*
X134358000Y-50042000D01*
X127958000Y-48042000D02*
X127958000Y-43942000D01*
X127958000Y-52042000D02*
X127958000Y-56142000D01*
X130058000Y-57542000D02*
X129758000Y-57842000D01*
X129758000Y-57242000D02*
X130058000Y-57542000D01*
D12*
%TO.C,U13*%
X139954000Y-84074000D02*
X139954000Y-99314000D01*
X124714000Y-84074000D02*
X139954000Y-84074000D01*
X139954000Y-99314000D02*
X124714000Y-99314000D01*
X124714000Y-99314000D02*
X124714000Y-84074000D01*
D11*
%TO.C,J2*%
X165878000Y-42628000D02*
X169938000Y-42628000D01*
X163818000Y-44748000D02*
X163818000Y-43688000D01*
X169938000Y-44748000D02*
X169938000Y-42628000D01*
X165878000Y-44748000D02*
X165878000Y-42628000D01*
X164878000Y-44748000D02*
X163818000Y-44748000D01*
X165878000Y-44748000D02*
X169938000Y-44748000D01*
%TO.C,J1*%
X128972000Y-76140000D02*
X130302000Y-76140000D01*
X131572000Y-76140000D02*
X141792000Y-76140000D01*
X128972000Y-77470000D02*
X128972000Y-76140000D01*
X131572000Y-78800000D02*
X131572000Y-76140000D01*
X131572000Y-78800000D02*
X141792000Y-78800000D01*
X141792000Y-78800000D02*
X141792000Y-76140000D01*
%TO.C,SW1*%
X162298000Y-53944000D02*
X164958000Y-53944000D01*
X163628000Y-48744000D02*
X164958000Y-48744000D01*
X164958000Y-48744000D02*
X164958000Y-50074000D01*
X162298000Y-51344000D02*
X164958000Y-51344000D01*
X164958000Y-51344000D02*
X164958000Y-53944000D01*
X162298000Y-51344000D02*
X162298000Y-53944000D01*
%TD*%
%LPC*%
D13*
%TO.C,C1*%
X136906000Y-63472000D03*
X136906000Y-62512000D03*
%TD*%
D14*
%TO.C,R2*%
X131572000Y-59942000D03*
X131572000Y-60962000D03*
%TD*%
D15*
%TO.C,U11*%
X143764000Y-89154000D03*
X150084000Y-86614000D03*
D16*
X151384000Y-96774000D03*
X143764000Y-96774000D03*
D17*
X142574000Y-91694000D03*
X152574000Y-91694000D03*
D18*
X147574000Y-91694000D03*
%TD*%
D15*
%TO.C,U9*%
X143764000Y-104394000D03*
X150084000Y-101854000D03*
D16*
X151384000Y-112014000D03*
X143764000Y-112014000D03*
D18*
X147574000Y-106934000D03*
D17*
X152574000Y-106934000D03*
X142574000Y-106934000D03*
%TD*%
D19*
%TO.C,C2*%
X131572000Y-62512000D03*
X131572000Y-63472000D03*
%TD*%
D15*
%TO.C,U12*%
X159004000Y-119634000D03*
X165324000Y-117094000D03*
D16*
X166624000Y-127254000D03*
X159004000Y-127254000D03*
D17*
X157814000Y-122174000D03*
D18*
X162814000Y-122174000D03*
D17*
X167814000Y-122174000D03*
%TD*%
D15*
%TO.C,U10*%
X159004000Y-89154000D03*
X165324000Y-86614000D03*
D16*
X166624000Y-96774000D03*
X159004000Y-96774000D03*
D17*
X157814000Y-91694000D03*
X167814000Y-91694000D03*
D18*
X162814000Y-91694000D03*
%TD*%
D15*
%TO.C,U3*%
X128524000Y-119634000D03*
X134844000Y-117094000D03*
D16*
X136144000Y-127254000D03*
X128524000Y-127254000D03*
D17*
X137334000Y-122174000D03*
D18*
X132334000Y-122174000D03*
D17*
X127334000Y-122174000D03*
%TD*%
D15*
%TO.C,U6*%
X159004000Y-104394000D03*
X165324000Y-101854000D03*
D16*
X166624000Y-112014000D03*
X159004000Y-112014000D03*
D17*
X167814000Y-106934000D03*
X157814000Y-106934000D03*
D18*
X162814000Y-106934000D03*
%TD*%
D15*
%TO.C,U2*%
X143764000Y-119634000D03*
X150084000Y-117094000D03*
D16*
X151384000Y-127254000D03*
X143764000Y-127254000D03*
D17*
X152574000Y-122174000D03*
D18*
X147574000Y-122174000D03*
D17*
X142574000Y-122174000D03*
%TD*%
D15*
%TO.C,U8*%
X128524000Y-104394000D03*
X134844000Y-101854000D03*
D16*
X136144000Y-112014000D03*
X128524000Y-112014000D03*
D17*
X137334000Y-106934000D03*
X127334000Y-106934000D03*
D18*
X132334000Y-106934000D03*
%TD*%
D14*
%TO.C,R3*%
X136652000Y-59942000D03*
X136652000Y-60962000D03*
%TD*%
D20*
%TO.C,S1*%
X131358000Y-43042000D03*
X136358000Y-43042000D03*
D21*
X128258000Y-50042000D03*
X139458000Y-50042000D03*
D20*
X133858000Y-57542000D03*
X136358000Y-57542000D03*
D22*
X131358000Y-57542000D03*
%TD*%
D15*
%TO.C,U13*%
X128524000Y-89154000D03*
X134844000Y-86614000D03*
D16*
X136144000Y-96774000D03*
X128524000Y-96774000D03*
D18*
X132334000Y-91694000D03*
D17*
X127334000Y-91694000D03*
X137334000Y-91694000D03*
%TD*%
D23*
%TO.C,J2*%
X168878000Y-43688000D03*
X166878000Y-43688000D03*
D24*
X164878000Y-43688000D03*
%TD*%
D25*
%TO.C,J1*%
X140462000Y-77470000D03*
X137922000Y-77470000D03*
X135382000Y-77470000D03*
X132842000Y-77470000D03*
D26*
X130302000Y-77470000D03*
%TD*%
D25*
%TO.C,SW1*%
X163628000Y-52614000D03*
D26*
X163628000Y-50074000D03*
%TD*%
D27*
%TO.C,J3*%
X154434000Y-47580000D03*
D28*
X154434000Y-43400000D03*
X145794000Y-43400000D03*
D27*
X145794000Y-47580000D03*
D29*
X147224000Y-47050000D03*
X153004000Y-47050000D03*
%TD*%
M02*
